<?xml version="1.0" encoding="UTF-8"?> <svg xmlns="http://www.w3.org/2000/svg" width="1000" height="562" viewBox="0 0 1000 562" fill="none"><rect width="1000" height="562" fill="white"></rect><path d="M52.6771 324.714L130.854 276.082H171.427C172.677 276.082 173.823 277.071 173.823 278.477C173.823 279.623 173.302 280.091 172.677 280.456L134.292 303.47C131.792 304.98 130.906 307.948 130.906 310.187L130.854 324.714H179.656V240.415C179.656 238.801 178.406 237.395 176.531 237.395H129.969L52 285.819V324.714H52.6771Z" fill="black"></path><path d="M693.719 324.714H764.031V305.813H716.01V289.984H754.656V271.031H716.01V256.296H764.031V237.395H693.719V324.714Z" fill="black"></path><path d="M251.896 237.395L218.406 324.714H241.427L247.26 308.365H284.656L290.385 324.714H314.187L280.281 237.395H251.896ZM253.875 289.776L266.115 255.567L278.146 289.776H253.875Z" fill="black"></path><path d="M409.708 256.296H437.885V324.714H460.125V256.296H488.198V237.395H409.708V256.296Z" fill="black"></path><path d="M377.313 291.078C377.313 302.429 370.333 307.011 358.406 307.011C346.844 307.011 339.292 302.221 339.292 291.078V237.083H317V293.629C317 318.831 339.5 326.693 358.354 326.693C377.104 326.693 399.5 318.831 399.5 293.629V237.083H377.208V291.078H377.313Z" fill="black"></path><path d="M947.833 237.395H921.323L889.552 272.854V237.395H867.26L867.365 324.714H889.552V291.547L919.656 324.714H947.833L907.208 281.601L947.833 237.395Z" fill="black"></path><path d="M641.323 237.395H600.49V324.714H641.323C672.625 324.714 681.271 313.051 681.271 280.404C681.271 249.735 672.99 237.395 641.323 237.395ZM640.438 305.813H622.729V256.296H640.438C654.396 256.296 658.563 260.097 658.563 280.404C658.563 298.94 653.875 305.813 640.438 305.813Z" fill="black"></path><path d="M831.375 273.323L811.063 271.031C799.188 269.73 796.219 266.762 796.219 262.753C796.219 258.275 802.313 254.265 814.24 254.265C825.698 254.265 831.688 258.535 832.781 264.939H854.604C853.51 246.455 838.042 235 815.438 235C788.563 235 775.073 245.674 775.073 264.575C775.073 279.935 784.031 287.173 802.573 289.151L823.198 291.338C831.063 292.223 834.656 295.243 834.656 299.201C834.656 303.679 829.396 307.688 816.74 307.688C802.104 307.688 796.219 303.991 795.229 296.545H773.823C774.813 316.644 787.886 326.901 815.958 326.901C841.583 326.901 855.906 315.654 855.906 298.732C855.906 283.997 847.417 275.145 831.375 273.323Z" fill="black"></path><path d="M540.021 235C508.25 235 491.792 254.526 491.792 280.82C491.792 307.219 508.25 326.849 540.021 326.849C571.896 326.849 588.354 307.219 588.354 280.82C588.406 254.526 571.896 235 540.021 235ZM540.021 307.219C523.563 307.219 514.5 297.17 514.5 280.82C514.5 264.783 523.563 254.63 540.021 254.63C556.635 254.63 565.542 264.783 565.542 280.82C565.594 297.222 556.635 307.219 540.021 307.219Z" fill="black"></path><path d="M98.4147 442.144C100.323 442.144 101.547 441.172 101.547 439.828V439.528C101.547 438.232 100.647 437.668 99.4947 437.296L98.3787 436.948C97.3707 436.636 96.9507 436.252 96.9507 435.784V435.556C96.9507 435.04 97.4307 434.428 98.6547 434.428C99.5667 434.428 100.131 434.644 100.875 435.244L101.523 434.548C100.779 433.84 99.8667 433.456 98.6427 433.456C96.7347 433.456 95.7267 434.488 95.7267 435.544V435.808C95.7267 436.72 96.2667 437.44 97.6827 437.896L98.9427 438.304C99.9987 438.652 100.323 438.964 100.323 439.66V439.816C100.323 440.428 99.7587 441.124 98.4027 441.124C97.2027 441.124 96.7227 440.776 96.0387 440.32L95.3907 441.076C96.0387 441.676 96.9507 442.144 98.4147 442.144ZM103.917 444.544C104.889 444.544 105.597 444.184 106.005 442.888L108.261 435.652H107.061L105.513 441.1L103.845 435.652H102.585L104.673 442H105.225L104.985 442.78C104.805 443.416 104.457 443.656 103.905 443.656C103.677 443.656 103.497 443.632 103.269 443.584L103.089 444.4C103.269 444.472 103.605 444.544 103.917 444.544ZM116.218 435.508C115.426 435.508 114.814 435.868 114.322 436.492C113.986 435.844 113.338 435.508 112.63 435.508C111.898 435.508 111.322 435.82 110.89 436.36L110.806 435.652H109.786V442H110.986V437.38C111.37 436.792 111.826 436.444 112.378 436.444C112.942 436.444 113.374 436.816 113.374 437.692V442H114.574V437.38C114.97 436.792 115.414 436.444 115.966 436.444C116.53 436.444 116.974 436.804 116.974 437.704V442H118.174V437.596C118.174 436.24 117.25 435.508 116.218 435.508ZM123.226 435.508C122.506 435.508 121.93 435.76 121.51 436.204V433.12H120.31V442H121.282L121.378 441.448C121.822 441.892 122.362 442.144 123.034 442.144C124.522 442.144 125.662 440.836 125.662 439.12V438.496C125.662 436.696 124.714 435.508 123.226 435.508ZM124.462 439.144C124.462 440.464 123.838 441.196 122.902 441.196C122.326 441.196 121.882 440.98 121.51 440.596V437.236C121.87 436.768 122.398 436.444 123.046 436.444C123.97 436.444 124.462 437.14 124.462 438.472V439.144ZM129.858 435.508C127.95 435.508 126.954 436.78 126.954 438.484V439.144C126.954 440.884 127.95 442.144 129.858 442.144C131.766 442.144 132.786 440.884 132.786 439.144V438.484C132.786 436.78 131.766 435.508 129.858 435.508ZM129.858 436.444C130.974 436.444 131.586 437.188 131.586 438.46V439.132C131.586 440.452 130.974 441.196 129.858 441.196C128.742 441.196 128.154 440.452 128.154 439.132V438.46C128.154 437.188 128.742 436.444 129.858 436.444ZM135.616 433.12H134.416V440.848C134.416 441.7 134.932 442.144 135.736 442.144C136.036 442.144 136.276 442.084 136.504 442L136.36 441.148C136.252 441.16 136.156 441.184 136.072 441.184C135.736 441.184 135.616 441.028 135.616 440.656V433.12Z" fill="black"></path><path d="M562.836 433.6L561.684 440.992L560.028 433.6H558.432L556.8 440.992L555.612 433.6H554.352L555.852 442H557.616L559.2 434.692L560.808 442H562.56L564.048 433.6H562.836ZM568.007 435.508C566.099 435.508 565.103 436.78 565.103 438.484V439.144C565.103 440.884 566.099 442.144 568.007 442.144C569.915 442.144 570.935 440.884 570.935 439.144V438.484C570.935 436.78 569.915 435.508 568.007 435.508ZM568.007 436.444C569.123 436.444 569.735 437.188 569.735 438.46V439.132C569.735 440.452 569.123 441.196 568.007 441.196C566.891 441.196 566.303 440.452 566.303 439.132V438.46C566.303 437.188 566.891 436.444 568.007 436.444ZM575.493 435.532C574.845 435.532 574.149 435.832 573.789 436.684L573.597 435.652H572.685V442H573.885V438.1C574.245 437.08 574.869 436.744 575.649 436.744C575.769 436.744 575.913 436.756 576.033 436.78L576.249 435.652C576.081 435.592 575.841 435.532 575.493 435.532ZM581.221 433.12V436.096C580.789 435.688 580.297 435.508 579.649 435.508C578.077 435.508 577.057 436.792 577.057 438.508V439.144C577.057 440.932 578.077 442.144 579.565 442.144C580.345 442.144 580.909 441.808 581.329 441.28L581.449 442H582.421V433.12H581.221ZM579.733 441.196C578.821 441.196 578.257 440.524 578.257 439.168V438.484C578.257 437.212 578.833 436.444 579.805 436.444C580.441 436.444 580.921 436.72 581.221 437.068V440.368C580.849 440.884 580.405 441.196 579.733 441.196ZM591.105 435.508C590.313 435.508 589.701 435.868 589.209 436.492C588.873 435.844 588.225 435.508 587.517 435.508C586.785 435.508 586.209 435.82 585.777 436.36L585.693 435.652H584.673V442H585.873V437.38C586.257 436.792 586.713 436.444 587.265 436.444C587.829 436.444 588.261 436.816 588.261 437.692V442H589.461V437.38C589.857 436.792 590.301 436.444 590.853 436.444C591.417 436.444 591.861 436.804 591.861 437.704V442H593.061V437.596C593.061 436.24 592.137 435.508 591.105 435.508ZM597.356 435.508C596.42 435.508 595.628 435.784 595.004 436.144L595.388 436.936C596.012 436.624 596.552 436.444 597.272 436.444C598.1 436.444 598.496 436.828 598.496 437.644V438.124H597.236C595.604 438.124 594.62 438.856 594.62 439.948V440.368C594.62 441.484 595.616 442.144 596.696 442.144C597.44 442.144 598.088 441.892 598.64 441.352L598.724 442H599.696V437.668C599.696 436.348 598.94 435.508 597.356 435.508ZM596.888 441.208C596.192 441.208 595.82 440.824 595.82 440.284V440.02C595.82 439.312 596.336 438.952 597.32 438.952H598.496V440.488C598.088 440.98 597.512 441.208 596.888 441.208ZM604.649 435.532C604.001 435.532 603.305 435.832 602.945 436.684L602.753 435.652H601.841V442H603.041V438.1C603.401 437.08 604.025 436.744 604.805 436.744C604.925 436.744 605.069 436.756 605.189 436.78L605.405 435.652C605.237 435.592 604.997 435.532 604.649 435.532ZM610.772 442H612.128L609.368 438.184L611.708 435.652H610.316L607.928 438.256V433.12H606.728V442H607.928V439.672L608.588 438.952L610.772 442Z" fill="black"></path><path d="M488.846 124.98V117.6H487.622V126H487.646H492.362V124.98H488.846ZM495.958 119.508C494.05 119.508 493.054 120.78 493.054 122.484V123.144C493.054 124.884 494.05 126.144 495.958 126.144C497.866 126.144 498.886 124.884 498.886 123.144V122.484C498.886 120.78 497.866 119.508 495.958 119.508ZM495.958 120.444C497.074 120.444 497.686 121.188 497.686 122.46V123.132C497.686 124.452 497.074 125.196 495.958 125.196C494.842 125.196 494.254 124.452 494.254 123.132V122.46C494.254 121.188 494.842 120.444 495.958 120.444ZM504.524 119.64L504.44 120.228C503.984 119.748 503.444 119.508 502.688 119.508C501.404 119.508 500.192 120.456 500.192 122.496V123.06C500.192 125.16 501.308 126 502.604 126C503.36 126 503.948 125.664 504.38 125.172V126.084C504.38 127.128 503.804 127.596 502.796 127.596C502.052 127.596 501.524 127.476 500.984 127.212L500.6 127.968C501.2 128.328 501.956 128.544 502.88 128.544C504.404 128.544 505.544 127.668 505.544 126.132V119.64H504.524ZM502.76 125.052C501.968 125.052 501.392 124.596 501.392 123.048V122.472C501.392 120.912 502.052 120.444 502.88 120.444C503.516 120.444 503.972 120.708 504.344 121.188V124.2C503.948 124.74 503.396 125.052 502.76 125.052ZM510.196 119.508C508.288 119.508 507.292 120.78 507.292 122.484V123.144C507.292 124.884 508.288 126.144 510.196 126.144C512.104 126.144 513.124 124.884 513.124 123.144V122.484C513.124 120.78 512.104 119.508 510.196 119.508ZM510.196 120.444C511.312 120.444 511.924 121.188 511.924 122.46V123.132C511.924 124.452 511.312 125.196 510.196 125.196C509.08 125.196 508.492 124.452 508.492 123.132V122.46C508.492 121.188 509.08 120.444 510.196 120.444Z" fill="black"></path><line y1="-0.5" x2="11" y2="-0.5" transform="matrix(0 -1 -1 0 116 429)" stroke="#E70865"></line><line x1="179.5" y1="415" x2="179.5" y2="419" stroke="#E70865"></line><line x1="52.5" y1="415" x2="52.5" y2="419" stroke="#E70865"></line><line y1="-0.5" x2="128" y2="-0.5" transform="matrix(-1 1.53673e-08 1.24335e-07 1 180 419)" stroke="#E70865"></line><line y1="-0.5" x2="11" y2="-0.5" transform="matrix(0 -1 -1 0 583 429)" stroke="#E70865"></line><line x1="947.5" y1="415" x2="947.5" y2="419" stroke="#E70865"></line><line x1="218.5" y1="415" x2="218.5" y2="419" stroke="#E70865"></line><line y1="-0.5" x2="730" y2="-0.5" transform="matrix(-1 2.69454e-09 7.09096e-07 1 948 419)" stroke="#E70865"></line><line x1="500.5" y1="133" x2="500.5" y2="144" stroke="#E70865"></line><line y1="-0.5" x2="4" y2="-0.5" transform="matrix(0 -1 -1 0 947 147)" stroke="#E70865"></line><line y1="-0.5" x2="4" y2="-0.5" transform="matrix(0 -1 -1 0 52 147)" stroke="#E70865"></line><line x1="948" y1="143.5" x2="52" y2="143.5" stroke="#E70865"></line></svg> 